HIERARCHY
ROOT Hips
{
	OFFSET 0.00000 0.00000 0.00000
	CHANNELS 6 Xposition Yposition Zposition Zrotation Yrotation Xrotation 
	JOINT LHipJoint
	{
		OFFSET 0 0 0
		CHANNELS 3 Zrotation Yrotation Xrotation
		JOINT LeftHip
		{
			OFFSET 1.36337 -1.57426 1.11036
			CHANNELS 3 Zrotation Yrotation Xrotation
			JOINT LeftKnee
			{
				OFFSET 2.38468 -6.55187 0.00000
				CHANNELS 3 Zrotation Yrotation Xrotation
				JOINT LeftAnkle
				{
					OFFSET 2.37166 -6.51609 0.00000
					CHANNELS 3 Zrotation Yrotation Xrotation
					JOINT LeftToe
					{
						OFFSET 0.29078 -0.79891 2.01393
						CHANNELS 3 Zrotation Yrotation Xrotation
						End Site
						{
							OFFSET 0.00000 -0.00000 1.07924
						}
					}
				}
			}
		}
	}
	JOINT RHipJoint
	{
		OFFSET 0 0 0
		CHANNELS 3 Zrotation Yrotation Xrotation
		JOINT RightHip
		{
			OFFSET -1.36349 -1.57426 1.11036
			CHANNELS 3 Zrotation Yrotation Xrotation
			JOINT RightKnee
			{
				OFFSET -2.29562 -6.30717 0.00000
				CHANNELS 3 Zrotation Yrotation Xrotation
				JOINT RightAnkle
				{
					OFFSET -2.40985 -6.62100 0.00000
					CHANNELS 3 Zrotation Yrotation Xrotation
					JOINT RightToe
					{
						OFFSET -0.23197 -0.63733 1.92232
						CHANNELS 3 Zrotation Yrotation Xrotation
						End Site
						{
							OFFSET -0.00000 -0.00000 1.01562
						}
					}
				}
			}
		}
	}
	JOINT lowerback
	{
		OFFSET 0 0 0
		CHANNELS 3 Zrotation Yrotation Xrotation
		JOINT Chest
		{
			OFFSET -0.08565 2.03602 -0.24562
			CHANNELS 3 Zrotation Yrotation Xrotation
			JOINT Chest2
			{
				OFFSET -0.00036 2.05693 0.00216
				CHANNELS 3 Zrotation Yrotation Xrotation
				JOINT lowerneck
				{
					OFFSET 0 0 0
					CHANNELS 3 Zrotation Yrotation Xrotation
					JOINT Neck
					{
						OFFSET -0.03664 1.69515 0.31789
						CHANNELS 3 Zrotation Yrotation Xrotation
						JOINT Head
						{
							OFFSET 0.00932 1.70181 -0.46013
							CHANNELS 3 Zrotation Yrotation Xrotation
							End Site
							{
								OFFSET 0.01243 1.77620 -0.19377
							}
						}
					}
				}
				JOINT LeftCollar
				{
					OFFSET 0 0 0
					CHANNELS 3 Zrotation Yrotation Xrotation
					JOINT LeftShoulder
					{
						OFFSET 3.74344 0.81315 -0.36647
CHANNELS 3 Zrotation Xrotation Yrotation
						JOINT LeftElbow
						{
OFFSET 0 -4.971850 -0.000000
CHANNELS 3 Zrotation Xrotation Yrotation
							JOINT LeftWrist
							{
OFFSET 0 -3.358110 0.000000
CHANNELS 3 Zrotation Xrotation Yrotation
								JOINT lhand
								{
									OFFSET 0 0 0
CHANNELS 3 Zrotation Xrotation Yrotation
									JOINT LFingers
									{
OFFSET 0 -0.622780 0.000000
CHANNELS 3 Zrotation Xrotation Yrotation
										End Site
										{
OFFSET 0 -0.502100 0.000000
										}
									}
								}
								JOINT LThumb
								{
OFFSET 0 0.000000 0.000000
CHANNELS 3 Zrotation Xrotation Yrotation
									End Site
									{
OFFSET 0 -0.509760 0.509760
									}
								}
							}
						}
					}
				}
				JOINT RightCollar
				{
					OFFSET 0 0 0
					CHANNELS 3 Zrotation Yrotation Xrotation
					JOINT RightShoulder
					{
						OFFSET -3.75385 0.50666 -0.06525
CHANNELS 3 Zrotation Xrotation Yrotation
						JOINT RightElbow
						{
OFFSET 0 -4.964930 -0.000000
CHANNELS 3 Zrotation Xrotation Yrotation
							JOINT RightWrist
							{
OFFSET 0 -3.349290 0.000000
CHANNELS 3 Zrotation Xrotation Yrotation
								JOINT rhand
								{
									OFFSET 0 0 0
CHANNELS 3 Zrotation Xrotation Yrotation
									JOINT RFingers
									{
OFFSET 0 -0.638040 0.000000
CHANNELS 3 Zrotation Xrotation Yrotation
										End Site
										{
OFFSET 0 -0.514410 0.000000
										}
									}
								}
								JOINT RThumb
								{
OFFSET 0 0.000000 0.000000
CHANNELS 3 Zrotation Xrotation Yrotation
									End Site
									{
OFFSET 0 -0.522260 0.522260
									}
								}
							}
						}
					}
				}
			}
		}
	}
}
MOTION
Frames: 6
Frame Time: 0.008333333333333333
-10.120757 14.971840 0.314600 -329.400481 71.655724 -311.799479 0.000000 0.000000 0.000000 -14.935353 -2.195069 -57.924229 8.747862 16.642460 55.213645 0.550575 0.044125 -14.036413 0.322681 -3.650065 -10.094417 0.000000 0.000000 0.000000 -3.960488 -0.473742 -49.383661 -11.024286 -17.947003 62.860501 -2.526291 -1.896094 -30.786655 -0.114923 2.177570 -5.996998 -4.317398 -1.214214 26.236047 -0.941723 -2.264160 6.836991 2.118955 -0.841217 -6.786467 -9.231030 -6.613732 -29.360007 5.382948 -6.515854 16.625024 2.298950 -2.910611 10.579400 0.000000 0.000000 0.000000 -6.997938 -27.460358 -108.398349 33.167894 -43.458721 13.537369 26.354321 -8.443296 17.705913 0.000000 0.000000 0.000000 -7.125000 0.000000 0.000000 -1.074420 10.372299 -0.863878 0.000000 0.000000 0.000000 -7.039643 -10.735867 38.029888 -18.076545 -28.254950 -4.585489 8.456008 -52.766789 35.988598 0.000000 0.000000 0.000000 7.125000 0.000000 0.000000 47.552152 59.361274 -19.311245
-10.161337 15.000323 0.391787 -328.598851 71.730855 -310.939641 0.000000 0.000000 0.000000 -14.984031 -2.095579 -57.660490 8.484854 16.464128 54.290288 0.506465 0.096921 -13.481580 0.267301 -3.324438 -9.183317 0.000000 0.000000 0.000000 -3.603165 -0.602751 -49.554651 -11.007266 -17.938641 62.805167 -2.483508 -2.688873 -30.840899 -0.199671 2.871016 -7.920358 -4.204749 -1.360001 25.908382 -0.784910 -2.409800 6.732818 2.265720 -0.916686 -6.726570 -8.180534 -4.913977 -29.813370 3.502416 -4.132812 17.258361 1.868382 -1.998167 10.632354 0.000000 0.000000 0.000000 -6.892287 -27.525346 -107.442468 33.192130 -43.476989 13.554096 25.377596 -8.415663 18.094420 0.000000 0.000000 0.000000 -7.125000 0.000000 0.000000 -1.750716 10.105078 -1.417386 0.000000 0.000000 0.000000 -7.490567 -10.671455 38.866154 -17.866741 -27.986013 -4.486637 9.022773 -51.845476 34.593805 0.000000 0.000000 0.000000 7.125000 0.000000 0.000000 46.535968 58.229643 -17.483286
-10.193949 15.025919 0.461757 -327.726831 71.679870 -310.001093 0.000000 0.000000 0.000000 -15.163750 -2.007054 -57.393293 8.241985 16.293933 53.428923 0.489844 0.151605 -13.279331 0.258140 -3.267459 -9.024376 0.000000 0.000000 0.000000 -3.492690 -0.655965 -49.685903 -10.984925 -17.927709 62.732583 -2.479089 -2.904920 -30.902041 -0.212567 2.960744 -8.169968 -3.509970 -1.294494 25.413585 -1.174859 -2.158975 6.821147 1.350399 -0.810842 -6.449376 -6.250708 -3.423977 -30.565468 1.570435 -2.359949 17.853210 1.159341 -1.309825 10.819564 0.000000 0.000000 0.000000 -6.237838 -27.916554 -107.778756 33.359882 -43.604797 13.669616 24.570901 -8.668391 18.476028 0.000000 0.000000 0.000000 -7.125000 0.000000 0.000000 -2.312097 9.819873 -1.886487 0.000000 0.000000 0.000000 -6.983030 -10.722872 38.524949 -18.207652 -28.421537 -4.647963 6.449619 -50.153300 38.655758 0.000000 0.000000 0.000000 7.125000 0.000000 0.000000 49.147322 61.708012 -22.953689
-10.224148 15.050839 0.526655 -326.918377 71.620653 -309.258668 0.000000 0.000000 0.000000 -15.364365 -1.871105 -56.984765 8.009863 16.126137 52.597753 0.460502 0.276371 -12.921136 0.361010 -3.844904 -10.642525 0.000000 0.000000 0.000000 -3.475404 -0.564039 -49.517911 -10.945344 -17.908225 62.603960 -2.511967 -2.759377 -31.038352 -0.142330 2.421209 -6.671722 -3.325162 -1.366140 25.088009 -1.254689 -2.221662 6.650948 1.171555 -0.846968 -6.484494 -4.618418 -1.461503 -29.683780 -0.624616 0.122668 17.659182 0.531513 -0.353967 10.502770 0.000000 0.000000 0.000000 -5.966093 -27.579631 -106.497998 33.439226 -43.664878 13.724401 23.611665 -8.860957 18.985386 0.000000 0.000000 0.000000 -7.125000 0.000000 0.000000 -2.981254 9.422268 -2.457213 0.000000 0.000000 0.000000 -7.094605 -10.347009 39.221704 -18.378943 -28.639676 -4.729476 4.338795 -48.300120 40.931443 0.000000 0.000000 0.000000 7.125000 0.000000 0.000000 50.354634 63.809076 -26.094860
-10.252256 15.068739 0.588231 -326.457307 71.607898 -308.891538 0.000000 0.000000 0.000000 -15.389702 -1.737827 -56.574018 7.788263 15.961075 51.796146 0.426301 0.434806 -12.499003 0.418486 -4.152085 -11.504937 0.000000 0.000000 0.000000 -3.356777 -0.304290 -49.279244 -10.896412 -17.883987 62.444637 -2.516650 -3.019945 -31.173447 -0.144466 2.448693 -6.747561 -3.269277 -1.330471 24.987213 -1.125998 -2.153609 6.616588 1.258434 -0.817293 -6.471711 -3.135684 0.550366 -29.741192 -3.022368 2.871932 17.780072 -0.107909 0.687690 10.570496 0.000000 0.000000 0.000000 -6.007453 -27.619708 -105.329268 33.596721 -43.783720 13.833264 23.026005 -8.956421 18.819401 0.000000 0.000000 0.000000 -7.125000 0.000000 0.000000 -3.347762 9.687390 -2.741316 0.000000 0.000000 0.000000 -7.456377 -10.389238 39.388803 -18.267013 -28.497752 -4.675966 3.026004 -45.905176 40.566798 0.000000 0.000000 0.000000 7.125000 0.000000 0.000000 48.606786 63.929667 -25.105595
-10.276389 15.093450 0.646287 -326.392235 71.616478 -308.925444 0.000000 0.000000 0.000000 -15.287968 -1.558178 -56.151790 7.584634 15.805037 51.052421 0.411131 0.537599 -12.318628 0.350956 -3.806456 -10.532678 0.000000 0.000000 0.000000 -3.079870 -0.182525 -49.082845 -10.838380 -17.855037 62.255577 -2.520890 -3.222244 -31.282589 -0.126237 2.285266 -6.294962 -3.117387 -1.281172 24.887386 -1.040548 -2.050501 6.568665 1.233309 -0.771486 -6.481772 -1.461067 2.664110 -29.410095 -5.469703 5.680526 17.687613 -0.780239 1.778218 10.627375 0.000000 0.000000 0.000000 -5.778668 -27.685164 -104.378565 33.879477 -43.995210 14.029261 22.747300 -8.891311 17.756382 0.000000 0.000000 0.000000 -7.125000 0.000000 0.000000 -3.445283 10.858261 -2.740067 0.000000 0.000000 0.000000 -7.747284 -10.283655 39.536073 -18.203813 -28.417277 -4.645802 1.882261 -43.745230 38.831874 0.000000 0.000000 0.000000 7.125000 0.000000 0.000000 45.100918 63.032429 -21.996278
